#!OML:ASF H:\GeneralSubjects\Female5\Project 1\Capture day 1\Session 1\Female5.ASF
:FULLY-SPECIFIED
:DEGREES
81
root 31.555 14.9929 -1.67574 70.4008 84.5435 70.745
lowerback 4.4326 -0.98604 -3.01721
upperback -9.87296 -1.63505 -2.6214
thorax -13.2164 -0.513223 -0.959874
lowerneck -13.7127 -1.1411 2.58257
upperneck 39.6272 0.691145 -4.02674
head 16.5897 0.718588 -1.95552
rclavicle 4.77083e-015 -1.45113e-014
rhumerus -81.1599 13.7417 -85.7243
rradius 42.345
rwrist -11.0729
rhand -15.3647 -13.4721
rfingers 7.12502
rthumb 10.813 -43.1738
lclavicle 4.77083e-015 -1.45113e-014
lhumerus -51.8124 -18.7412 89.5922
lradius 95.1227
lwrist -17.553
lhand -39.1253 31.3952
lfingers 7.12502
lthumb -12.1245 61.0239
rfemur -23.8928 4.26851 22.1414
rtibia 11.5619
rfoot -19.0503 -19.6779
rtoes 47.5674
lfemur 5.22559 1.86555 -32.6238
ltibia 54.093
lfoot -14.7679 9.69453
ltoes -62.664
82
root 32.0369 14.76 -1.61283 81.2415 82.3686 82.1599
lowerback 5.34802 -1.05671 -5.21857
upperback -9.80817 -2.08812 -3.12124
thorax -13.6849 -0.524153 -0.204708
lowerneck -13.7316 -1.15197 1.80909
upperneck 39.127 0.935196 -4.192
head 16.3432 0.659791 -1.83792
rclavicle -1.08835e-014 -3.95581e-014
rhumerus -79.147 14.527 -85.3362
rradius 38.9583
rwrist -9.62609
rhand -15.4162 -14.0777
rfingers 7.12502
rthumb 10.7633 -43.7819
lclavicle -1.08835e-014 -3.95581e-014
lhumerus -51.8916 -17.4235 90.2524
lradius 93.1752
lwrist -21.3173
lhand -38.6994 32.768
lfingers 7.12502
lthumb -11.7138 62.4205
rfemur -25.8293 2.49087 19.7965
rtibia 18.284
rfoot -18.79 -16.8168
rtoes 46.3803
lfemur 3.18835 1.93424 -35.0499
ltibia 59.4321
lfoot -19.0489 10.0528
ltoes -60.0778
83
root 32.4365 14.6215 -1.54561 70.9689 84.3387 70.4624
lowerback 5.0113 -0.669946 -2.92345
upperback -10.2779 -1.19003 -2.30345
thorax -14.0598 -0.274813 -0.741888
lowerneck -14.5176 -1.26113 1.12105
upperneck 39.13 0.94667 -4.15636
head 16.545 0.548399 -1.70583
rclavicle 1.2424e-015 -3.37934e-015
rhumerus -76.4453 14.7483 -83.8866
rradius 35.6364
rwrist -7.70497
rhand -15.2837 -15.7298
rfingers 7.12502
rthumb 10.8911 -45.4274
lclavicle 1.2424e-015 -3.37934e-015
lhumerus -52.1501 -16.4233 90.6483
lradius 90.4069
lwrist -23.4041
lhand -38.9068 33.3289
lfingers 7.12502
lthumb -11.9137 62.9699
rfemur -30.3806 2.9707 23.0621
rtibia 25.5628
rfoot -18.6727 -14.0514
rtoes 44.9839
lfemur -1.79074 2.39013 -32.4359
ltibia 64.4657
lfoot -21.6217 9.38005
ltoes -58.6552
84
root 32.8002 14.548 -1.49377 52.1083 84.6967 51.1836
lowerback 5.70309 0.0339367 -1.52944
upperback -10.4765 -0.0637778 -2.0371
thorax -14.7447 0.123691 -1.43275
lowerneck -14.7153 -1.39398 0.653608
upperneck 38.6448 0.626008 -3.67559
head 16.322 0.390031 -1.46066
rclavicle -9.74045e-015 2.21645e-014
rhumerus -74.1498 13.9889 -81.5773
rradius 33.4823
rwrist -4.67721
rhand -15.4139 -17.1108
rfingers 7.12502
rthumb 10.7656 -46.8149
lclavicle -9.74045e-015 2.21645e-014
lhumerus -53.0367 -16.0611 90.209
lradius 87.365
lwrist -23.5801
lhand -38.8305 33.9268
lfingers 7.12502
lthumb -11.8402 63.5721
rfemur -32.2509 2.0674 25.3957
rtibia 30.0312
rfoot -16.0681 -11.108
rtoes 44.1541
lfemur -6.27327 3.0552 -31.1422
ltibia 69.1393
lfoot -22.541 8.25691
ltoes -57.7435
85
root 33.1354 14.4935 -1.44092 37.0087 84.6281 36.4478
lowerback 7.17117 0.546389 -0.903904
upperback -10.2534 0.717946 -1.49689
thorax -15.4061 0.440398 -1.34772
lowerneck -15.5897 -1.48351 0.91792
upperneck 38.4266 0.834641 -4.8835
head 16.4434 0.318594 -2.01367
rclavicle 4.07509e-015 1.23246e-014
rhumerus -72.1461 13.7633 -79.0802
rradius 33.1973
rwrist -2.64997
rhand -15.9308 -18.3848
rfingers 7.12502
rthumb 10.267 -48.1142
lclavicle 4.07509e-015 1.23246e-014
lhumerus -53.4912 -15.1097 89.72
lradius 83.8844
lwrist -22.1532
lhand -37.8746 32.8597
lfingers 7.12502
lthumb -10.9183 62.5558
rfemur -31.6079 1.70195 27.0419
rtibia 31.8746
rfoot -14.4406 -9.17753
rtoes 43.2715
lfemur -10.2989 2.85255 -30.2054
ltibia 73.6048
lfoot -22.3229 6.99182
ltoes -57.2263
86
root 33.4356 14.4504 -1.39006 27.2644 84.5306 27.6632
lowerback 9.04653 0.740077 -0.767014
upperback -9.80142 0.995268 -0.968272
thorax -16.0731 0.56742 -0.916043
lowerneck -15.7765 -1.40107 1.2406
upperneck 37.7958 1.0087 -5.50741
head 16.1746 0.32465 -2.30276
rclavicle -5.38582e-015 1.00448e-014
rhumerus -69.5382 14.6053 -78.3377
rradius 33.2147
rwrist -3.56142
rhand -17.1664 -19.2933
rfingers 7.12502
rthumb 9.0748 -49.078
lclavicle -5.38582e-015 1.00448e-014
lhumerus -53.575 -13.4991 88.6642
lradius 80.2379
lwrist -20.8388
lhand -36.37 34.8165
lfingers 7.12502
lthumb -9.46685 64.5838
rfemur -29.2015 1.01563 28.1435
rtibia 31.6039
rfoot -12.4955 -8.81868
rtoes 39.0161
lfemur -13.8283 2.32716 -29.6907
ltibia 76.1827
lfoot -22.0362 3.5947
ltoes -53.8435
87
root 33.7225 14.4721 -1.35355 21.1922 84.4096 21.7439
lowerback 9.93845 0.919649 -0.662282
upperback -9.46591 1.27463 -0.571094
thorax -16.2455 0.701632 -0.601015
lowerneck -16.2515 -1.3796 0.86435
upperneck 37.4235 0.969006 -5.18137
head 16.097 0.273042 -2.09755
rclavicle 2.20651e-014 8.05078e-015
rhumerus -67.3584 15.8593 -78.5205
rradius 34.4365
rwrist -5.99009
rhand -18.4886 -19.5112
rfingers 7.12502
rthumb 7.79873 -49.3473
lclavicle 2.20651e-014 8.05078e-015
lhumerus -53.1729 -11.8761 87.4214
lradius 76.2714
lwrist -19.9027
lhand -34.3658 33.7976
lfingers 7.12502
lthumb -7.53265 63.6435
rfemur -26.781 0.751793 28.833
rtibia 29.4728
rfoot -9.74336 -9.74427
rtoes 29.324
lfemur -17.959 0.883241 -29.5444
ltibia 77.0068
lfoot -21.9566 2.64263
ltoes -53.876
88
root 34.0047 14.4977 -1.32114 19.4542 84.3845 20.4989
lowerback 10.8985 1.00222 -0.936607
upperback -9.27602 1.34254 -0.332083
thorax -16.6529 0.772924 -0.20974
lowerneck -15.178 -1.44631 0.864815
upperneck 36.6285 0.80973 -5.20829
head 15.4291 0.206687 -2.09918
rclavicle -1.18277e-014 4.96962e-016
rhumerus -65.9497 16.9593 -78.6529
rradius 36.5893
rwrist -7.04455
rhand -18.8196 -19.6391
rfingers 7.12502
rthumb 7.47926 -49.4868
lclavicle -1.18277e-014 4.96962e-016
lhumerus -53.4247 -10.4158 86.1679
lradius 72.2102
lwrist -19.1229
lhand -34.6148 33.3185
lfingers 7.12502
lthumb -7.773 63.1556
rfemur -25.29 -0.305641 29.0729
rtibia 29.9835
rfoot -6.92783 -9.41437
rtoes -10.8576
lfemur -21.3808 -1.11391 -29.6868
ltibia 76.775
lfoot -22.0208 1.42939
ltoes -54.1074
89
root 34.2868 14.5441 -1.29815 20.2126 84.3094 21.5081
lowerback 11.427 1.08604 -1.4898
upperback -9.03825 1.34746 -0.200852
thorax -16.7234 0.842113 0.243472
lowerneck -14.9287 -1.51517 0.771531
upperneck 36.3938 0.524883 -4.7405
head 15.2382 0.135153 -1.92265
rclavicle 2.5842e-015 -3.27995e-015
rhumerus -64.2657 17.6942 -78.4806
rradius 39.0134
rwrist -7.30774
rhand -19.3487 -19.2445
rfingers 7.12502
rthumb 6.96854 -49.1098
lclavicle 2.5842e-015 -3.27995e-015
lhumerus -53.2913 -8.90024 84.4375
lradius 68.0713
lwrist -19.6003
lhand -34.3593 32.5886
lfingers 7.12502
lthumb -7.52643 62.4347
rfemur -23.9895 -1.06865 28.9328
rtibia 30.3168
rfoot -6.78289 -8.84316
rtoes -26.9226
lfemur -24.604 -3.39718 -29.9367
ltibia 75.4931
lfoot -22.1575 0.919636
ltoes -54.45
90
root 34.5861 14.6286 -1.28774 20.8523 84.0101 22.0851
lowerback 11.321 1.28041 -2.0504
upperback -8.86632 1.51135 -0.137512
thorax -16.4657 0.982735 0.595176
lowerneck -14.9195 -1.61985 0.909881
upperneck 36.3041 0.183843 -4.43529
head 15.1744 0.0476902 -1.87386
rclavicle -6.01324e-015 -2.38542e-015
rhumerus -62.8073 18.1827 -78.2391
rradius 41.5978
rwrist -7.56542
rhand -20.583 -18.4545
rfingers 7.12502
rthumb 5.77698 -48.3557
lclavicle -6.01324e-015 -2.38542e-015
lhumerus -53.2295 -7.50993 82.5343
lradius 63.9911
lwrist -20.0553
lhand -34.4383 32.1794
lfingers 7.12502
lthumb -7.60262 62.0227
rfemur -23.1817 -2.16051 28.6545
rtibia 31.1435
rfoot -7.50037 -7.69122
rtoes -28.71
lfemur -27.4199 -5.54795 -30.0383
ltibia 73.0718
lfoot -23.2092 1.32794
ltoes -54.7937
